<?xml version="1.0" encoding="UTF-8" standalone="no"?>
<!-- Created with Inkscape (http://www.inkscape.org/) -->

<svg
   width="90.197937mm"
   height="90.197975mm"
   viewBox="0 0 90.197937 90.197975"
   version="1.1"
   id="svg5"
   inkscape:version="1.1 (c68e22c387, 2021-05-23)"
   sodipodi:docname="trashcan.svg"
   xmlns:inkscape="http://www.inkscape.org/namespaces/inkscape"
   xmlns:sodipodi="http://sodipodi.sourceforge.net/DTD/sodipodi-0.dtd"
   xmlns="http://www.w3.org/2000/svg"
   xmlns:svg="http://www.w3.org/2000/svg">
  <sodipodi:namedview
     id="namedview7"
     pagecolor="#505050"
     bordercolor="#eeeeee"
     borderopacity="1"
     inkscape:pageshadow="0"
     inkscape:pageopacity="0"
     inkscape:pagecheckerboard="0"
     inkscape:document-units="mm"
     showgrid="false"
     fit-margin-top="0"
     fit-margin-left="0"
     fit-margin-right="0"
     fit-margin-bottom="0"
     inkscape:zoom="22.627417"
     inkscape:rotation="1"
     inkscape:cx="150.00139"
     inkscape:cy="231.47695"
     inkscape:window-width="3840"
     inkscape:window-height="2066"
     inkscape:window-x="-11"
     inkscape:window-y="-11"
     inkscape:window-maximized="1"
     inkscape:current-layer="g2546" />
  <defs
     id="defs2" />
  <g
     inkscape:label="Layer 1"
     inkscape:groupmode="layer"
     id="layer1"
     transform="translate(-60.379092,-11.391762)">
    <g
       id="g2546"
       transform="translate(5.2756394,0.19831069)">
      <path
         style="fill:#aeaeae;stroke-width:0.352778"
         d="M 85.82365,83.787914 C 82.905909,82.343652 83.047465,83.045627 81.116429,60.444901 80.167544,49.33921 79.387954,40.054296 79.384007,39.811761 c -0.0047,-0.286385 -0.563689,-0.440972 -1.594676,-0.440972 h -1.5875 l 5.64e-4,-2.38125 c 6.6e-4,-2.937696 0.75681,-4.612232 2.46888,-5.467507 1.007805,-0.503455 2.191019,-0.616914 6.438195,-0.617361 l 5.203472,-5.48e-4 v -2.041917 c 0,-2.666545 1.110689,-4.951834 2.822222,-5.806841 1.816322,-0.907354 12.294786,-0.907354 14.111116,0 1.71153,0.855007 2.82222,3.140296 2.82222,5.806841 v 2.041917 l 5.20347,5.64e-4 c 4.24718,4.59e-4 5.43039,0.113906 6.43819,0.617361 1.71207,0.855275 2.46822,2.529811 2.4689,5.467507 l 5.5e-4,2.381234 h -1.5875 c -1.03151,0 -1.58967,0.154441 -1.5937,0.440972 -0.004,0.242535 -0.78242,9.526524 -1.73115,20.631087 -1.934,22.636946 -1.78979,21.926028 -4.73733,23.352912 -1.44181,0.697963 -2.08311,0.730571 -14.3624,0.730306 -12.330254,-2.68e-4 -12.913849,-0.0303 -14.34388,-0.738152 z m 5.40662,-9.409331 c 1.065943,-0.711751 1.077066,-1.789889 0.145454,-14.098658 -0.819863,-10.832293 -1.025423,-12.522024 -1.600678,-13.15767 -0.85618,-0.946068 -2.209397,-0.782568 -2.999612,0.362423 -0.579018,0.838973 -0.562207,1.487484 0.345025,13.310309 0.820907,10.697859 1.043494,12.527587 1.5986,13.140972 0.650548,0.718845 1.795333,0.920627 2.511211,0.442624 z m 10.37156,-0.435572 c 0.67943,-0.679425 0.70556,-1.175924 0.70556,-13.405555 0,-12.229631 -0.0261,-12.72613 -0.70556,-13.405556 -0.38805,-0.388055 -1.02305,-0.705555 -1.41111,-0.705555 -0.388056,0 -1.023056,0.3175 -1.411112,0.705555 -0.679425,0.679426 -0.705555,1.175925 -0.705555,13.405556 0,12.229631 0.02614,12.72613 0.705555,13.405555 0.388056,0.388056 1.023056,0.705556 1.411112,0.705556 0.38806,0 1.02306,-0.3175 1.41111,-0.705556 z m 10.23056,0 c 0.38805,-0.388055 0.70555,-0.952824 0.70555,-1.255038 0,-0.302218 0.40231,-5.81878 0.89402,-12.259028 0.4917,-6.440251 0.80733,-12.06215 0.70139,-12.493114 -0.38881,-1.581604 -2.91748,-1.935869 -3.67777,-0.515253 -0.18636,0.34822 -0.76939,6.327154 -1.29562,13.286522 l -0.95678,12.653391 0.79535,0.644038 c 1.03229,0.835896 1.9565,0.815834 2.83386,-0.06152 z m -5.99723,-44.979166 v -1.940278 h -5.64444 -5.644445 v 1.940278 1.940278 h 5.644445 5.64444 z"
         id="path2552"
         sodipodi:nodetypes="sscsccsscsssscssscscssssssssssssscssssssssscsscsssccccccccc" />
      <path
         style="fill:#909090;stroke-width:0.352778"
         d="m 88.719059,73.935959 c -0.555106,-0.613385 -0.777693,-2.443113 -1.5986,-13.140972 -0.907232,-11.822825 -0.924043,-12.471336 -0.345025,-13.310309 0.790215,-1.144991 2.143432,-1.308491 2.999612,-0.362423 0.575255,0.635646 0.780815,2.325377 1.600678,13.15767 0.931612,12.308769 0.920489,13.386907 -0.145454,14.098658 -0.715878,0.478003 -1.860663,0.276221 -2.511211,-0.442624 z m 10.060549,0.0071 c -0.679425,-0.679425 -0.705555,-1.175924 -0.705555,-13.405555 0,-12.229631 0.02614,-12.72613 0.705555,-13.405556 0.388056,-0.388055 1.023056,-0.705555 1.411112,-0.705555 0.38806,0 1.02306,0.3175 1.41111,0.705555 0.67943,0.679426 0.70556,1.175925 0.70556,13.405556 0,12.229631 -0.0261,12.72613 -0.70556,13.405555 -0.38805,0.388056 -1.02305,0.705556 -1.41111,0.705556 -0.388056,0 -1.023056,-0.3175 -1.411112,-0.705556 z m 10.218922,0.06152 -0.79535,-0.644038 0.95678,-12.653391 c 0.52623,-6.959368 1.10926,-12.938302 1.29562,-13.286522 0.76029,-1.420616 3.28896,-1.066351 3.67777,0.515253 0.10594,0.430964 -0.20969,6.052863 -0.70139,12.493114 -0.49171,6.440248 -0.89402,11.95681 -0.89402,12.259028 0,0.760684 -1.2715,1.960594 -2.07758,1.960594 -0.36656,0 -1.02439,-0.289818 -1.46183,-0.644038 z"
         id="path2550"
         sodipodi:nodetypes="ssssssssssssscssscsssssss" />
    </g>
  </g>
</svg>
